<svg width="20" height="19" viewBox="0 0 20 19" fill="none" xmlns="http://www.w3.org/2000/svg">
<path d="M18.2897 1.78491C17.2653 0.71139 15.89 0.0769175 14.4363 0.00731183C12.9827 -0.0622939 11.557 0.438051 10.4419 1.40913C10.3136 1.50968 10.1591 1.56766 9.99857 1.57548C9.83707 1.57059 9.68127 1.51231 9.55384 1.40913C8.43924 0.437498 7.01361 -0.0632202 5.56003 0.00639588C4.10645 0.0760119 2.73123 0.710871 1.70744 1.78491C1.16436 2.34595 0.733815 3.0133 0.440735 3.74834C0.147654 4.48339 -0.00214049 5.27151 2.31073e-05 6.0671C2.31073e-05 7.68461 0.606343 9.20558 1.67026 10.3077L8.05092 18.0655C8.29135 18.3585 8.59014 18.5938 8.92665 18.7551C9.26316 18.9164 9.62937 19 10 19C10.3706 19 10.7368 18.9164 11.0734 18.7551C11.4099 18.5938 11.7087 18.3585 11.9491 18.0655L18.2911 10.3493C18.8343 9.78827 19.2651 9.12095 19.5584 8.38592C19.8517 7.6509 20.0018 6.86276 20 6.0671C20.0012 5.27139 19.8507 4.48331 19.5572 3.74833C19.2636 3.01336 18.8329 2.34605 18.2897 1.78491V1.78491ZM17.2572 9.35708L10.8766 17.1149C10.4376 17.6496 9.55956 17.6496 9.12055 17.1149L2.70272 9.31549C2.29092 8.88982 1.96451 8.38354 1.74236 7.82595C1.52022 7.26836 1.40677 6.67054 1.40857 6.0671C1.40857 4.84022 1.8676 3.68613 2.70272 2.8187C3.11317 2.38937 3.60127 2.04855 4.13897 1.81582C4.67666 1.58309 5.25334 1.46305 5.83585 1.4626C6.85871 1.46192 7.84927 1.83467 8.63436 2.51569C8.69299 2.56916 9.21779 3.03704 9.99857 3.03704C10.7579 3.03704 11.2942 2.57659 11.3428 2.53203C12.1881 1.79546 13.2692 1.41593 14.3715 1.46876C15.4737 1.52159 16.5165 2.00291 17.293 2.81721C17.7064 3.24773 18.0336 3.75903 18.2557 4.3216C18.4778 4.88417 18.5905 5.48686 18.5871 6.09489C18.5838 6.70291 18.4646 7.30424 18.2363 7.86415C18.0081 8.42406 17.6753 8.93147 17.2572 9.35708V9.35708Z" fill="white"/>
</svg>
